Jump_normalized_Motion_pl02
version=1
nRows=23
nColumns=43
inDegrees=yes
endheader
time		pelvis_tilt		pelvis_list		pelvis_rotation		pelvis_tx		pelvis_ty		pelvis_tz		hip_flexion_r		hip_adduction_r		hip_rotation_r		knee_angle_r		ankle_angle_r		subtalar_angle_r		mtp_angle_r		hip_flexion_l		hip_adduction_l		hip_rotation_l		knee_angle_l		ankle_angle_l		subtalar_angle_l		mtp_angle_l		lumbar_extension		lumbar_bending		lumbar_rotation		neck_flexion		neck_lateral_bending		neck_rotation		arm_flex_r		arm_add_r		arm_rot_r		elbow_flex_r		pro_sup_r		wrist_flex_r		wrist_dev_r		hand_finger_flex_r		arm_flex_l		arm_add_l		arm_rot_l		elbow_flex_l		pro_sup_l		wrist_flex_l		wrist_dev_l		hand_finger_flex_l		
0.002500		-0.427156		-3.813162		89.219085		0.077596		1.766398		1.869596		81.053408		-5.595342		5.773194		-149.211348		24.366953		4.460218		17.407512		79.273196		-7.381424		16.303941		-148.038537		21.045203		24.839017		27.138210		-57.110438		-1.055181		2.664484		34.509374		0.115517		-4.507141		26.751740		-22.116322		-15.511956		84.970165		112.373184		11.089111		-8.367541		-28.877661		49.179139		-23.045896		8.338648		61.285166		116.273775		-15.426368		-7.188790		9.464471		
0.005051		-0.412641		-4.058956		89.186334		0.077781		1.767249		1.868059		80.943040		-5.534271		5.749370		-149.023263		24.335720		4.522796		17.378305		79.164162		-7.392838		16.235469		-147.876757		21.035514		24.870749		27.098324		-56.925611		-1.067136		2.693784		34.679582		0.167226		-4.452969		27.412904		-22.322833		-15.247644		85.305692		112.514921		11.259896		-8.447988		-28.865576		49.789345		-22.989129		8.445144		61.437239		116.208771		-15.419055		-7.165778		9.480937		
0.007601		-0.266481		-4.097189		89.111236		0.077670		1.768410		1.866531		80.588886		-5.469257		5.621052		-148.846807		24.482162		4.671526		17.279528		78.844682		-7.468510		16.288499		-147.780421		21.149663		24.702883		26.932606		-56.983129		-0.992219		2.775020		34.907013		0.209195		-4.297584		28.210655		-22.654341		-14.943969		85.666424		113.104521		11.820301		-8.461981		-28.994492		50.495410		-23.175385		8.973239		61.740898		116.051856		-15.552151		-6.812892		9.529673		
0.010152		-0.239415		-4.391584		89.130867		0.077786		1.769176		1.864981		80.532676		-5.468516		5.541936		-148.667602		24.486382		4.693790		17.256839		78.802036		-7.454065		16.230742		-147.624522		21.166725		24.672597		26.900249		-56.737350		-0.960000		2.792449		35.044675		0.263165		-4.315165		28.915527		-22.811105		-14.716536		85.965452		113.198837		11.967525		-8.510092		-29.018737		51.138891		-23.041454		9.021548		61.837056		116.056137		-15.596860		-6.705678		9.528166		
0.012702		-0.059462		-4.584833		89.161949		0.077480		1.770021		1.863443		80.345867		-5.483469		5.338090		-148.498030		24.592358		4.702676		17.177294		78.692648		-7.452192		16.300791		-147.544654		21.315600		24.361225		26.780734		-56.609667		-0.775668		2.888929		35.228046		0.279681		-4.278545		29.704849		-23.197149		-14.375059		86.329638		113.537733		12.394214		-8.478042		-29.202083		51.849506		-23.089162		9.437343		62.094600		116.192876		-15.731602		-6.234917		9.564974		
0.015253		-0.001433		-4.874388		89.176389		0.077397		1.770819		1.861869		80.295875		-5.485490		5.244788		-148.332292		24.591426		4.708193		17.147259		78.657780		-7.476165		16.254013		-147.414648		21.355436		24.295053		26.741689		-56.376894		-0.710110		2.911337		35.446775		0.326526		-4.272254		30.501941		-23.408201		-14.105402		86.618885		113.629004		12.542024		-8.501506		-29.249304		52.549261		-22.947873		9.515903		62.191705		116.247630		-15.748734		-6.072868		9.578949		
0.017803		0.093582		-5.157167		89.206451		0.077252		1.771674		1.860263		80.216563		-5.485821		5.125597		-148.142713		24.606815		4.711270		17.121346		78.602117		-7.506641		16.225041		-147.271560		21.451057		24.166602		26.710719		-56.154186		-0.599273		2.963797		35.619944		0.354562		-4.244308		31.304401		-23.700037		-13.773544		86.965531		113.722533		12.685293		-8.513400		-29.273684		53.245975		-22.873545		9.677561		62.359194		116.356395		-15.714046		-5.889939		9.606021		
0.020354		0.208920		-5.429303		89.251429		0.077055		1.772575		1.858620		80.109497		-5.487390		4.980647		-147.947816		24.619569		4.710856		17.096332		78.535288		-7.543441		16.209533		-147.131912		21.566004		23.999448		26.681866		-55.942566		-0.457476		3.023448		35.792878		0.372734		-4.201639		32.140578		-23.989456		-13.431584		87.319625		113.810586		12.792683		-8.503043		-29.283006		53.944255		-22.798556		9.833259		62.543996		116.489833		-15.659797		-5.679028		9.631319		
0.022904		0.367062		-5.667838		89.319552		0.076803		1.773552		1.856928		79.937589		-5.488760		4.785820		-147.742725		24.631919		4.693278		17.064140		78.438088		-7.577231		16.225856		-147.003044		21.700298		23.762591		26.641026		-55.770098		-0.266933		3.097475		35.948827		0.378919		-4.129152		33.014924		-24.288828		-13.057617		87.697597		113.903403		12.856175		-8.449792		-29.274518		54.621100		-22.737419		9.961324		62.790588		116.683608		-15.584215		-5.405636		9.650644		
0.025455		0.620860		-5.833515		89.428999		0.076464		1.774740		1.855168		79.622320		-5.491182		4.466523		-147.501314		24.653665		4.629310		17.005082		78.260735		-7.606821		16.326486		-146.875500		21.865766		23.364388		26.554268		-55.687226		0.034152		3.202722		36.070094		0.355546		-3.987499		33.955454		-24.595091		-12.612744		88.113494		114.020315		12.848169		-8.294689		-29.251622		55.241581		-22.723496		10.036260		63.175560		117.031533		-15.473544		-4.953742		9.658431		
0.028005		0.682273		-6.141088		89.457090		0.076262		1.775647		1.853436		79.565014		-5.498320		4.384427		-147.305977		24.638071		4.625712		16.987296		78.212219		-7.646174		16.263168		-146.709562		21.906999		23.329245		26.532824		-55.430843		0.123370		3.219948		36.267623		0.424571		-3.969949		34.854313		-24.813805		-12.289228		88.433395		114.058312		12.897345		-8.313257		-29.188014		55.932715		-22.556688		10.043025		63.299515		117.147694		-15.402779		-4.876929		9.648454		
0.030556		0.814550		-6.392082		89.503003		0.076001		1.776616		1.851661		79.415437		-5.489510		4.237682		-147.102913		24.639774		4.610498		16.962864		78.102720		-7.677253		16.270291		-146.567680		22.027680		23.175952		26.503643		-55.236169		0.284663		3.263887		36.427727		0.464065		-3.883864		35.819346		-25.136161		-11.822642		88.790285		114.134960		12.925759		-8.258474		-29.059081		56.596339		-22.500541		10.107171		63.528578		117.442997		-15.233201		-4.762599		9.623968		
0.033106		1.027380		-6.570122		89.575275		0.075741		1.777764		1.849831		79.132995		-5.461552		3.974479		-146.867933		24.654125		4.565104		16.920833		77.918813		-7.707351		16.354927		-146.425869		22.175101		22.893110		26.443029		-55.121450		0.530300		3.316202		36.525298		0.473440		-3.706834		36.871808		-25.415832		-11.269398		89.148795		114.234327		12.852834		-8.090079		-28.846639		57.203209		-22.513730		10.100952		63.871023		117.988364		-14.965875		-4.564523		9.542016		
0.035657		1.076800		-6.891750		89.582883		0.075610		1.778605		1.848056		79.099795		-5.433351		3.909079		-146.681612		24.643673		4.549707		16.905697		77.882163		-7.723582		16.305333		-146.263571		22.202757		22.866420		26.426131		-54.837313		0.590343		3.327541		36.726517		0.574331		-3.684264		37.847108		-25.638941		-10.896092		89.454391		114.278420		12.896916		-8.101451		-28.731423		57.918924		-22.360371		10.129736		63.975722		118.184476		-14.838869		-4.530210		9.498812		
0.038207		1.171016		-7.184306		89.583819		0.075505		1.779468		1.846243		79.015042		-5.366879		3.795906		-146.481601		24.641039		4.504657		16.883786		77.806655		-7.751556		16.294894		-146.102394		22.281226		22.741037		26.408672		-54.575581		0.685013		3.351183		36.816851		0.648397		-3.592173		38.872867		-25.906421		-10.401138		89.783434		114.356640		12.926816		-8.041013		-28.566374		58.614745		-22.360326		10.267450		64.175057		118.576045		-14.609921		-4.509523		9.425043		
0.040758		1.290021		-7.458675		89.581057		0.075457		1.780360		1.844384		78.895260		-5.277982		3.643877		-146.271393		24.638868		4.421663		16.852290		77.710747		-7.787349		16.305642		-145.935258		22.352711		22.555694		26.382968		-54.321962		0.796595		3.370573		36.848142		0.711050		-3.448768		39.941481		-26.100907		-9.881145		90.094138		114.443135		12.898905		-7.920497		-28.369751		59.287424		-22.405101		10.387643		64.410127		119.104176		-14.335277		-4.474593		9.296040		
0.043308		1.342793		-7.801343		89.562899		0.075412		1.781140		1.842544		78.881553		-5.208192		3.564913		-146.078022		24.629563		4.362147		16.831986		77.685049		-7.805619		16.256079		-145.761875		22.373823		22.472559		26.373794		-53.996842		0.842838		3.382299		36.972677		0.801982		-3.390957		40.989168		-26.272788		-9.463103		90.382402		114.498015		12.921200		-7.890509		-28.258314		60.032857		-22.346235		10.528132		64.518710		119.377962		-14.159754		-4.466104		9.216049		
0.045859		1.427179		-8.123737		89.528745		0.075380		1.781831		1.840688		78.847569		-5.094706		3.446049		-145.896979		24.624948		4.230077		16.795161		77.656571		-7.855083		16.226354		-145.623411		22.414528		22.281174		26.362769		-53.673043		0.911846		3.394221		36.982043		0.873109		-3.255772		42.110656		-26.507892		-8.890291		90.664606		114.581579		12.907402		-7.774364		-28.103378		60.769895		-22.465110		10.806652		64.706366		119.836849		-13.874372		-4.473567		9.070943		
0.048409		1.480052		-8.471252		89.503041		0.075297		1.782532		1.838808		78.837849		-5.006947		3.368007		-145.713980		24.621539		4.137262		16.766618		77.655348		-7.881656		16.167299		-145.468558		22.429413		22.161348		26.359508		-53.324496		0.962861		3.405799		37.085968		0.958469		-3.179899		43.216152		-26.700974		-8.412651		90.929248		114.640574		12.905446		-7.715379		-28.005480		61.537688		-22.462861		11.030084		64.806754		120.105834		-13.677220		-4.472722		8.960764		
0.050960		1.537311		-8.822579		89.470857		0.075187		1.783217		1.836871		78.825534		-4.923973		3.288806		-145.526859		24.623362		4.049481		16.741361		77.644891		-7.919714		16.101798		-145.312059		22.439651		22.029289		26.364217		-52.964242		1.019085		3.427517		37.145135		1.028406		-3.103037		44.333024		-26.869968		-7.938970		91.186392		114.700860		12.889317		-7.643364		-27.952640		62.320105		-22.493608		11.319745		64.895606		120.310796		-13.505062		-4.482497		8.874875		
0.053510		1.615071		-9.159576		89.429548		0.075024		1.783916		1.834866		78.780894		-4.837824		3.186708		-145.332133		24.626799		3.921858		16.704555		77.609633		-7.974628		16.037068		-145.153150		22.443691		21.835203		26.378470		-52.605754		1.098752		3.457013		37.128464		1.082532		-2.983925		45.483540		-27.053379		-7.372799		91.433987		114.771804		12.813193		-7.510301		-27.927592		63.085664		-22.601467		11.679531		65.020059		120.524341		-13.337196		-4.496410		8.747499		
0.056061		1.675944		-9.504990		89.398265		0.074808		1.784665		1.832821		78.741073		-4.785402		3.105038		-145.132464		24.628972		3.835233		16.675608		77.571685		-8.017886		15.955629		-144.984995		22.440635		21.712385		26.395848		-52.244869		1.170703		3.488544		37.205611		1.153896		-2.911079		46.626508		-27.194965		-6.898522		91.664405		114.828781		12.750812		-7.422500		-27.920234		63.858958		-22.584498		11.935215		65.086377		120.648704		-13.233702		-4.490434		8.645826		
0.058611		1.737957		-9.837286		89.367170		0.074628		1.785449		1.830751		78.681839		-4.713438		3.024368		-144.917868		24.633668		3.759636		16.650406		77.515768		-8.075782		15.873961		-144.812967		22.443596		21.599939		26.423791		-51.891785		1.239280		3.519269		37.232315		1.211127		-2.842964		47.787799		-27.365620		-6.396454		91.889333		114.905258		12.685968		-7.322165		-27.934060		64.645035		-22.590445		12.232235		65.141794		120.757385		-13.158694		-4.490406		8.563465		
